<svg xmlns="http://www.w3.org/2000/svg"  fill="#008080" viewBox="0 0 798.53 729.91"><title>Bacenta</title><g id="Layer_2" data-name="Layer 2"><g id="Layer_1-2" data-name="Layer 1"><path d="M699.86,139.66c3.83,0,7.77-.12,11.69,0,11.46.43,23,.44,34.34,1.61,10.63,1.09,16.68,8.26,19.55,18.2,1,3.51,1.8,7.1,2.52,10.69.78,3.87,2.67,5.33,6.91,5.27A59.85,59.85,0,0,1,791,177.3c5,1.32,7.53,4.9,7.49,10.81-.24,39.16-.09,78.33-.18,117.5,0,3.37.42,8.18-1.49,9.81-4.39,3.74-10,6.16-15.34,8.61-2,.91-4.6.53-6.92.54-11.5,0-23,.28-34.49-.11-11.87-.41-16-5-16-16.86q-.06-58.74,0-117.49c0-9,4.44-13.86,13.53-14.59a110,110,0,0,1,11.49-.18c3,.07,4-1.2,4.06-4.17.27-11.29-3.93-15.84-15.17-16.36s-22.28-1.1-33.41-1.85c-4.11-.28-5.44,1.08-5.43,5.32q.24,63.22.11,126.46c0,46.49-.24,93-.24,139.46,0,45.65.24,91.3.21,137q0,36-.7,72a74.06,74.06,0,0,1-2.66,17.67c-3.28,12.11-11.93,19-24.1,20-14.57,1.21-29.26,1.09-43.9,1.44-7.26.17-7.17.06-7.26,7.17-.1,8.15.31,16.39-.73,24.44-2,15.88-13.18,25.58-29.27,25.82-19.49.28-39,.34-58.49,0-18.11-.36-29.59-12.3-30.08-30.55-.18-6.66-.4-13.35,0-20,.29-5-1.68-6.15-6.33-6.14-39.67.15-79.33.09-119,.08-24.5,0-49,.11-73.49-.14-5.16,0-6.75,1.76-6.54,6.65.27,6.65.22,13.33,0,20-.54,17.9-12.17,29.83-30,30.14q-29.23.5-58.49,0c-17.78-.32-29.44-12.27-30-30.15-.23-7.16-.28-14.34,0-21.49.18-4.5-1.67-5.75-5.86-5.71q-16.49.16-33-.25a100.58,100.58,0,0,1-14.41-1.26c-12.24-2.07-21-11.19-22.79-24a189.16,189.16,0,0,1-2-25.35q-.2-230-.11-460c0-7.37,0-7.47-7.38-7.36-11.31.16-22.65.14-33.94.81S45.83,162.5,46,172.47c0,1,2.32,2.6,3.69,2.75,3.79.42,7.66,0,11.48.3,8,.53,12.26,4.33,13.26,12.26a107.9,107.9,0,0,1,.48,13.47q0,52.25,0,104.49c0,1.5,0,3-.13,4.5-.93,9.64-5.57,14.11-15.21,14.24-13.83.17-27.66.37-41.48,0A29.84,29.84,0,0,1,6.2,321.35C2,319.29,0,315.53,0,310.35c.17-40,.09-80,.09-120C.09,181,4,176.58,13.58,175.6a96,96,0,0,1,12-.41c3.09.07,4.54-1.24,5.11-4.15a103.08,103.08,0,0,1,2.61-11.18C37.39,147,44.43,141.16,58,140.37c12-.7,24-.93,36-.83,4.85,0,6.24-1.39,6.13-6.19-.32-15-.08-30-.24-45-.34-34.06,21.3-66.47,54-80.85A85.47,85.47,0,0,1,189.14,0c143.32.26,286.65,0,430,.41,14.65,0,28.24,6.4,40.15,15,26.56,19.21,41,44.78,40.08,78.28-.4,14.63-.05,29.28,0,43.92A11.11,11.11,0,0,0,699.86,139.66ZM128.68,276.73h.06c0,36.82-.07,73.64,0,110.46.05,19.69,9,30.77,27.05,33.68a63.73,63.73,0,0,0,10,.44q54.24.06,108.47.05c27.15,0,54.31.12,81.47-.07,12-.09,23.42-3.16,29.06-14.84a52.08,52.08,0,0,0,4.84-21.59c.39-54.64.22-109.29.21-163.94,0-18,.22-36-.12-54-.26-13.72-3.95-26.05-18.46-31.29a49,49,0,0,0-16.08-2.71c-38-.24-76-.14-114-.14-27,0-54-.11-81,.08-16,.12-26.47,7.88-30,22a55.87,55.87,0,0,0-1.46,13.35C128.63,204.42,128.68,240.57,128.68,276.73Zm541.3-.21h0c0-37.49.12-75-.06-112.46-.06-12.72-4.63-23.38-17.38-28.23a46.75,46.75,0,0,0-16-2.88c-36.49-.26-73-.15-109.47-.15-28.49,0-57-.13-85.47.09-17.84.14-28.21,8.59-31.44,25.35a79.08,79.08,0,0,0-1.1,14.92q-.12,80.47,0,160.94c0,19.15,0,38.32.61,57.46.52,17.33,13.44,29.51,30.65,29.73,6,.08,12-.15,18,0,3.18.09,4.51-1.27,5.86-4.1,4.36-9.12,8.38-18.57,14-26.88,30.29-44.59,93.14-40.41,120.38-9.68a122.47,122.47,0,0,1,21.63,35.65c.78,1.91,2.61,4.69,4.11,4.79,9.81.63,19.74.85,29-3.19,12.59-5.47,16.54-16.49,16.63-28.92C670.17,351.49,670,314,670,276.52ZM399.49,95.71v.15q43.71,0,87.42,0c12.32,0,24.64-.06,37-.49,8.42-.3,13.83-5.6,14.13-13.86.35-9.79.32-19.61,0-29.4-.26-7.85-4.21-12.29-12-13.7a78,78,0,0,0-13.91-1.08q-112.92-.09-225.85,0c-3.83,0-7.66.24-11.47.61-7.78.76-12.82,4.51-13.49,12.24A192.35,192.35,0,0,0,261.06,82c.74,9.16,5.73,13.17,15.05,13.34,20.14.36,40.29.31,60.43.35C357.52,95.75,378.5,95.71,399.49,95.71Zm-200.62,430c-24.13.11-42.7,18.56-42.55,42.26a42.8,42.8,0,0,0,43.29,42.45c22.3-.07,42.62-20.7,42.24-42.91C241.46,544.36,222.16,525.58,198.87,525.69Zm358.63,42a42.85,42.85,0,0,0,43,42.7c22.63,0,42.18-19.74,42.25-42.66a42.22,42.22,0,0,0-41.93-42.07C576.31,525.61,557.5,543.85,557.5,567.71ZM399.34,509.34v0c31.3,0,62.61,0,93.91-.07a32.17,32.17,0,0,0,9.75-1.5c4.07-1.32,5.81-4.85,6-9s-1.76-7.3-5.6-8.54a37.3,37.3,0,0,0-11.18-2q-93.41-.15-186.82,0a37,37,0,0,0-7.93.79c-4.8,1.07-7.45,4.29-7.62,9.21s1.89,8.54,6.73,9.85a36.33,36.33,0,0,0,9.34,1.22C337.06,509.38,368.2,509.34,399.34,509.34Zm.35,80.52v0q-48,0-95.95,0a27.51,27.51,0,0,0-6.87.91c-4.88,1.26-7.07,4.85-7,9.64s2.65,8.35,7.47,9.31a61.42,61.42,0,0,0,11.89,1c28.31,0,56.63-.16,84.94-.14,33.47,0,66.95.2,100.42.2,9.48,0,14.55-4,14.42-10.89s-4.7-10.08-14.32-10.08Zm-.38-30.38v0h58c13.66,0,27.32.15,41-.09,8.79-.15,13.6-8,9.46-15.2-2.69-4.64-7.41-5.21-12.21-5.21q-94.94,0-189.87,0a39.8,39.8,0,0,0-6.47.24c-6.21,1-9.73,5.3-9.32,11,.39,5.42,4.29,8.83,10.55,9.15,1.83.1,3.67.06,5.5.06ZM542.12,421.24v0q26,0,52,0c6.48,0,7-.82,4.59-7-12.25-31.89-50.7-47.11-82.17-32.38-14.43,6.75-25.38,17.06-30.83,32.39-2.18,6.15-1.45,7,4.93,7Q516.39,421.26,542.12,421.24Z"/></g></g></svg>