<svg xmlns="http://www.w3.org/2000/svg" viewBox="0 0 468.15 467.48" fill="#750606"><title>Council</title><g id="Layer_2" data-name="Layer 2"><g id="Layer_1-2" data-name="Layer 1"><path d="M234.09,467.47H14.62c-1.33,0-2.67,0-4,0C3.45,467.11.25,464.06.1,456.89c-.18-8.67-.06-17.33-.06-26q0-38.24,0-76.49c0-9.54,2.72-12.2,12.13-12.26,10.78-.07,9.93,1.13,9.48-9.62-.27-6.62,2.21-11.33,7.2-14.95,5.5-4,7.19-9,7.14-15.81-.32-39.49-.22-79-.07-118.48,0-4.51-.87-8.15-4.55-10.91-.92-.7-1.59-1.74-2.52-2.42-5.76-4.27-7.67-9.9-7.16-17,.51-7.29.1-7.32-7.34-7.34-1.5,0-3,0-4.49,0C3.72,145.24.21,142,.12,135.83c-.18-12-.08-24,0-36,0-5.64,3.31-8.54,8.31-10.53Q92.17,55.86,175.88,22.23c17.32-7,34.67-13.81,51.93-20.91a15.45,15.45,0,0,1,12.48,0q109.43,44,218.94,87.86c7.45,3,8.85,5,8.87,13.13,0,10.66,0,21.33,0,32-.06,8-3.29,11.17-11.27,11.3-10.43.16-10.64.17-10.4,10.31.12,5.11-1.28,9.26-5.38,12.2-7.34,5.29-9,12.27-8.94,21.15.47,38.49.26,77,.12,115.48,0,4.36.9,7.88,4.5,10.4,7.67,5.34,11.17,12.44,9.64,21.85-.62,3.85,1.12,5.66,5.07,5.16.16,0,.33,0,.5,0,16.42-1.15,16.28,4.79,16.23,16.23-.14,31.82,0,63.65,0,95.48,0,11-2.62,13.62-13.55,13.62ZM234,128.23H441.92c1.67,0,3.34-.07,5,0,2.74.11,3.94-1.13,3.89-3.88a110.34,110.34,0,0,1,.08-13c.53-5.15-1.42-7.61-6.28-9.55Q342,61,239.6,19.67a13.51,13.51,0,0,0-10.95-.06q-98,39.49-196.13,78.79c-4.9,2-11.3,2.45-14.2,6.67s-.82,10.36-.94,15.65c-.17,7.5,0,7.51,7.71,7.51Zm.07,322c32.15,0,64.3-.08,96.45.08,4.61,0,6.44-1.06,6.39-6.07q-.33-39.22,0-78.45c0-5.23-1.81-6.41-6.67-6.4q-96.21.19-192.4.09c-6.51,0-6.53,0-6.54,6.83,0,25.82.12,51.64-.11,77.45,0,5,1.26,6.61,6.42,6.58C169.78,450.08,201.93,450.19,234.08,450.19ZM97.25,243.83c0,19.81.18,39.63-.11,59.43-.09,5.46,1.11,9.76,5.56,13,7,5,9.94,11.77,8.58,20.34-.07.48,0,1,0,1.49-.22,3,1.23,4.18,4.17,4.1,4.33-.12,8.66-.15,13,0,3.47.13,5.11-1.38,4.63-4.73-1.43-9.83,2.7-17.07,10.28-22.79,3.5-2.64,4.48-6.09,4.46-10.45-.14-38.29-.33-76.59.11-114.88.1-8.89-1.77-15.87-9-21.26a13.79,13.79,0,0,1-5.77-9.56c-.54-4.14,2.19-9.54-1.79-12.18-3.42-2.27-8.44-.51-12.74-.74h-.5c-6.83,0-7.27.06-6.73,6.95.59,7.5-1.59,13.35-7.62,17.82-.92.69-1.6,1.72-2.51,2.42-3.18,2.46-4.1,5.63-4.07,9.61C97.34,202.87,97.26,223.35,97.25,243.83Zm273.63.14c0-20.48-.07-41,.07-61.44,0-3.94-.73-7.19-4-9.63-7.56-5.69-11.93-12.82-10.12-22.7a4.17,4.17,0,0,0,0-.5c.22-3-1.27-4.18-4.19-4.12-4,.09-8,.24-12,0-4.44-.31-6.22,1.58-5.64,5.83,1.08,8-1.71,14.37-8.18,19.09-5.4,3.95-6.59,9.3-6.55,15.73.2,37,.39,73.93-.11,110.89-.13,9.37,1.57,16.84,9.43,22.44,3.07,2.18,4.67,5.41,5.28,9.28.69,4.3-2.15,10,1.9,12.62,3.69,2.35,9.09.5,13.73.72.17,0,.34,0,.5,0,4.68.71,6.51-1.44,5.81-5.93-1.32-8.42,1.77-14.91,8.47-19.89.67-.5,1.14-1.24,1.8-1.73,3.15-2.3,3.85-5.42,3.82-9.18C370.82,284.93,370.88,264.45,370.88,244ZM259,243.43c0-20-.13-40,.09-60,.05-4.85-.87-8.65-5-11.64-7-5.07-10.56-11.83-9.14-20.7,0-.16,0-.33,0-.5.34-3.56-1.07-5.25-4.84-5.06a119.88,119.88,0,0,1-12,0c-3.68-.18-5.47,1.34-4.89,5,1.5,9.5-2.53,16.49-9.83,21.94-3.44,2.56-4.35,5.74-4.34,9.91.13,38.81.35,77.63-.13,116.44-.1,8.76,1.73,15.48,8.84,20.72a12.46,12.46,0,0,1,5.43,9.16c.39,4.34-2.17,10,1.61,12.71,3.39,2.43,8.73.65,13.21.72,6.91.11,7.33,0,6.82-6.83-.57-7.46,1.51-13.39,7.54-17.87.8-.59,1.36-1.49,2.16-2.08,3.7-2.76,4.58-6.43,4.54-10.93C258.89,284.08,259,263.75,259,243.43ZM66.05,450.18c14.15,0,28.31-.11,42.46.07,4.07.06,5.57-1.23,5.55-5.42q-.21-40,0-79.92c0-4.11-1.43-5.55-5.53-5.53q-42.45.17-84.91,0c-4.09,0-5.58,1.41-5.56,5.52q.18,40,0,79.93c0,4.17,1.47,5.48,5.55,5.43C37.74,450.07,51.9,450.19,66.05,450.18Zm335.61,0c14.32,0,28.64-.11,42.95.08,4.16.05,5.5-1.41,5.48-5.5q-.18-39.72,0-79.43c0-4.67-1.7-6-6.15-6q-42,.21-83.92,0c-4.64,0-6,1.63-6,6.12q.24,39.47,0,78.92c0,4.75,1.71,5.94,6.14,5.87C374,450.05,387.84,450.19,401.66,450.18Zm-223.14-108c7.67,0,15.33,0,23,0,1.62,0,3.82.26,4-1.92.37-3.72,1.32-7.65-2.12-10.75-2.6-2.33-4.92-5-7.5-7.33a12.34,12.34,0,0,1-4.17-9.73q.1-69,0-138a11.44,11.44,0,0,1,3.71-8.9c2.8-2.62,5.55-5.29,8.3-7.95,3-2.86,2.44-6.59,1.72-9.88s-4.14-2-6.41-2c-14.16-.12-28.32.08-42.48-.13-4.48-.07-5.59,1.68-5.73,5.89-.17,5,3.16,7.45,6.09,10.29,4.08,4,8.09,7.67,8.07,14.21-.13,45.32-.06,90.64-.08,136a12.74,12.74,0,0,1-4.75,10.53,68.28,68.28,0,0,0-7.49,7.34c-2.78,3.1-2.17,7.05-1.26,10.47.85,3.18,4.25,1.82,6.55,1.88C164.86,342.24,171.69,342.14,178.52,342.14Zm111,0c7.5,0,15-.11,22.49.05,3.57.08,4.78-1.17,5.2-4.84.86-7.45-4.75-10.6-9-14.54-3.31-3.08-5.13-6.45-5.13-10.88q0-68,0-136a14.27,14.27,0,0,1,5.12-11.43,88.85,88.85,0,0,0,7.08-7c2.72-2.94,1.92-6.57,1.39-10-.28-1.81-2.13-1.88-3.65-1.88q-23.49,0-47,0c-1.52,0-3.35.07-3.54,2-.36,3.76-1.12,7.64,2.44,10.64,2.66,2.25,5,4.84,7.6,7.23a11.48,11.48,0,0,1,3.76,8.89q-.08,69.23,0,138.46a11.48,11.48,0,0,1-3.75,8.88c-2.9,2.75-5.76,5.56-8.5,8.46-2.91,3.09-2.27,7-1.27,10.39.82,2.75,4.06,1.49,6.24,1.53C275.89,342.23,282.72,342.15,289.55,342.14Zm-223.4,0c7.66,0,15.32,0,23,0,1.75,0,4.19.51,4.49-2,.45-3.72,1.28-7.65-2.12-10.75-2.58-2.36-4.9-5-7.49-7.35a12.29,12.29,0,0,1-4.12-9.75q.09-68.46,0-136.93A12.45,12.45,0,0,1,84,165.59c2.81-2.6,5.51-5.32,8.15-8.1,2.79-2.93,1.8-6.59,1.42-10-.2-1.85-2.1-1.88-3.62-1.88q-23.49,0-47,0c-1.52,0-3.32.13-3.53,2-.44,3.76-1.22,7.64,2.19,10.72,2.59,2.35,4.92,5,7.49,7.34a12.39,12.39,0,0,1,4.07,9.79q-.08,68.22,0,136.44a13.32,13.32,0,0,1-4.31,10.22c-2.65,2.53-5.24,5.12-7.8,7.75-3,3.06-2.44,7-1.53,10.38.85,3.15,4.27,1.75,6.58,1.81C52.82,342.25,59.48,342.14,66.15,342.14Zm322.06-98.7c0,22.82,0,45.64.05,68.46A12.75,12.75,0,0,1,384,322.12c-2.83,2.57-5.53,5.31-8.13,8.12s-1.79,6.62-1.37,10c.27,2.17,2.46,1.86,4.09,1.87,15.32,0,30.65,0,46,.05,3.25,0,4.22-1.31,4.48-4.44.4-4.7-1.73-7.76-4.89-10.83-4.08-4-9.27-7.23-9.26-14.1q.1-69,0-137.94a11.54,11.54,0,0,1,3.79-8.88c2.9-2.75,5.75-5.56,8.49-8.47s1.91-6.59,1.4-10c-.31-2.1-2.47-1.9-4.11-1.9-15.33,0-30.65,0-46-.05-3.28,0-4.24,1.43-4.39,4.53-.19,4,.68,7.26,4,9.61,8.44,6,10.67,14.06,10.29,24.26C387.69,203.77,388.22,223.61,388.21,243.44Z"/><path d="M358.16,96.81c-.13,6.37-5.45,10.2-11.38,8.37-5.08-1.56-10-3.75-14.92-5.73q-46.38-18.54-92.74-37.2a12.27,12.27,0,0,0-10,0Q177.94,82.9,126.63,103.3a38.24,38.24,0,0,1-6.12,2.12c-4.59,1-8.65-1.24-10-5.39-1.46-4.46.28-7.82,4-10.26a19.46,19.46,0,0,1,3.62-1.66Q173.08,66,228,43.93a15,15,0,0,1,12,0q55.14,22.28,110.35,44.32C354.73,89.94,357.91,92.42,358.16,96.81Z"/><path d="M234.26,378.15q32,0,63.92,0c7.25,0,11.08,3,11,8.57,0,5.31-4.24,8.71-11.18,8.72q-63.92.06-127.83,0a15,15,0,0,1-5.39-.76c-4.15-1.61-6.51-4.72-5.78-9.33.68-4.29,3.45-6.71,7.81-7.11,1.66-.15,3.33-.09,5-.09Z"/><path d="M234.07,414.14h62.49a34.59,34.59,0,0,1,5.49.2,7.92,7.92,0,0,1,7.08,7.31c.55,4.18-1.52,7-5.2,8.77-2.31,1.08-4.85,1.05-7.37,1.05q-62.49,0-125,0a26.12,26.12,0,0,1-5.45-.46c-4.68-1-7.46-4.56-7.2-8.84.29-4.59,3.55-7.79,8.65-7.92,7.66-.2,15.33-.09,23-.09Z"/><path d="M78.23,404.3a12.17,12.17,0,1,1-24.33.35,12.48,12.48,0,0,1,12-12.27A12.53,12.53,0,0,1,78.23,404.3Z"/><path d="M414.23,404.78a12.16,12.16,0,1,1-24.32-.6,12.16,12.16,0,0,1,24.32.6Z"/></g></g></svg>