<svg xmlns="http://www.w3.org/2000/svg" width="56.417" height="41.036" viewBox="0 0 56.417 41.036">
  <g id="people-svgrepo-com" transform="translate(-0.221 -3.998)">
    <path id="Path_32" data-name="Path 32" d="M.221,33.383a36.075,36.075,0,0,0,4.284,4.55c0-.137-.024-.266-.024-.4a12.044,12.044,0,0,1,7.742-11.2,2.395,2.395,0,0,0,.419-4.272A7.168,7.168,0,1,1,21.3,10.709,14.252,14.252,0,0,1,26.14,9,11.96,11.96,0,1,0,7.19,23.569,16.931,16.931,0,0,0,.221,33.383Zm56.417,0a16.931,16.931,0,0,0-6.969-9.819A11.96,11.96,0,1,0,30.719,8.989,14.247,14.247,0,0,1,35.561,10.7a7.168,7.168,0,1,1,8.655,11.351,2.395,2.395,0,0,0,.419,4.272,12.044,12.044,0,0,1,7.742,11.205c0,.137-.019.266-.024.4A36.078,36.078,0,0,0,56.638,33.383Z" transform="translate(0 0)" fill="#68e0d7"/>
    <path id="Path_33" data-name="Path 33" d="M38.353,38.809a16.886,16.886,0,0,0-7.388-12.247,11.974,11.974,0,1,0-18.531,0A16.886,16.886,0,0,0,5.046,38.809a35.738,35.738,0,0,0,4.713,2.033c0-.108-.034-.208-.034-.319a12.048,12.048,0,0,1,7.742-11.2,2.395,2.395,0,0,0,.419-4.275,7.1,7.1,0,0,1-3.372-6.076,7.184,7.184,0,1,1,14.369,0,7.1,7.1,0,0,1-3.372,6.076,2.395,2.395,0,0,0,.419,4.275,12.048,12.048,0,0,1,7.742,11.2c0,.11-.029.211-.031.319a35.728,35.728,0,0,0,4.711-2.033Z" transform="translate(6.73 4.191)" fill="#68e0d7"/>
  </g>
</svg>
